<svg id="Capa_1" enable-background="new 0 0 512 512" height="512" viewBox="0 0 512 512" width="512" xmlns="http://www.w3.org/2000/svg"><g><g><g><g><g><g><path d="m392.966 65.084c0-17.113-11.2-31.606-26.669-36.559-40.343 4.827-71.618 39.165-71.618 80.808 0 0-.026 119.338-.03 137.976h98.317z" fill="#756e78"/><g><path d="m457.457 109.333c0-44.95-36.439-81.389-81.389-81.389-4.831 0-9.555.445-14.154 1.252 16.269 4.282 28.268 19.089 28.268 36.702v181.411h67.305c-.004-18.638-.03-137.976-.03-137.976z" fill="#665e66"/></g><g><path d="m438.816 190.615h-34.436c-4.268 0-7.726-3.459-7.726-7.726s3.459-7.726 7.726-7.726h34.436c5.177 0 9.389-4.212 9.389-9.389v-30.936h15.453v30.936c.001 13.697-11.143 24.841-24.842 24.841z" fill="#dbe8f9"/></g><g><g><path d="m424.849 107.669v46.109h27.218c6.402 0 11.591-5.19 11.591-11.591v-22.927c0-6.402-5.19-11.591-11.591-11.591z" fill="#9bc4f9"/></g></g><g><g><path d="m327.286 107.669v46.109h-27.218c-6.402 0-11.591-5.19-11.591-11.591v-22.927c0-6.402 5.19-11.591 11.591-11.591z" fill="#9bc4f9"/></g></g><g><g><g><g><path d="m440.378 270.912-19.098-41.987c-.196-.038-.384-.093-.576-.138-7.506-1.726-12.883-8.404-12.883-16.159v-45.582h-63.504v45.582c0 7.755-5.377 14.433-12.883 16.159-.193.044-.381.1-.576.138l-19.098 41.987z" fill="#ffddce"/><path d="m443.993 234.602-.434.387c-15.755 19.911-40.13 32.688-67.492 32.688s-51.737-12.777-67.492-32.688l-.481-.376c-39.665 9.377-67.96 44.85-67.96 85.933v53.614h271.866v-53.613c0-41.101-28.317-76.586-68.007-85.945z" fill="#dbe8f9"/><g><path d="m450.618 320.546c0-26.211-11.525-50.131-30.164-66.455 0 0-2.635-1.979-6.512-5.012 5.426 41.68 3.369 84.041-6.123 125.08h42.799z" fill="#7fb2f9"/></g><path d="m440.378 233.826-19.098-4.9c-.196-.038-.384-.093-.576-.138-5.567-1.28-9.957-5.287-11.857-10.434l2.511 14.004c1.294 7.218 2.334 14.468 3.174 21.733 18.639 16.324 30.164 40.244 30.164 66.455v53.614h67.304v-53.613c0-42.339-30.047-78.72-71.622-86.721z" fill="#60a0f7"/><path d="m340.778 232.358 2.511-14.004c-1.9 5.147-6.289 9.154-11.857 10.434-.193.044-.381.1-.576.138l-19.098 4.9c-41.575 8.001-71.622 44.383-71.622 86.72v53.614h104.18c-10.765-46.541-11.969-94.783-3.538-141.802z" fill="#7fb2f9"/></g></g></g><g><g><path d="m283.26 381.886c-4.268 0-7.726-3.459-7.726-7.726v-29.866c0-4.268 3.459-7.726 7.726-7.726s7.726 3.459 7.726 7.726v29.866c0 4.268-3.459 7.726-7.726 7.726z" fill="#9bc4f9"/></g><g><path d="m468.875 381.886c-4.268 0-7.726-3.459-7.726-7.726v-29.866c0-4.268 3.459-7.726 7.726-7.726s7.726 3.459 7.726 7.726v29.866c.001 4.268-3.458 7.726-7.726 7.726z" fill="#9bc4f9"/></g></g><path d="m448.576 317.636h24.729c4.552 0 8.243-3.69 8.243-8.243v-12.069c0-4.552-3.69-8.243-8.243-8.243h-24.729c-4.552 0-8.243 3.69-8.243 8.243v12.069c0 4.552 3.69 8.243 8.243 8.243z" fill="#eaf2ff"/></g><g><g><g><g><g><g><path d="m334.488 107.669c-.547 0-7.578 0-16.474 0v36.766c.374 24.741 16.21 45.734 38.277 53.728 21.054-8.702 36.31-29.539 36.675-53.651v-58.518c-13.804 14.854-34.872 21.675-58.478 21.675z" fill="#ffddce"/></g><path d="m406.754 75.273c-.826-2.573-4.315-2.9-5.627-.538-2.985 5.371-6.676 10.036-10.945 14.041v55.658c-.361 23.912-15.17 44.314-36.083 52.873 6.778 2.774 14.193 4.311 21.97 4.311 31.775 0 57.575-25.523 58.053-57.184v-36.766c-17.407-8.834-24.506-23.484-27.368-32.395z" fill="#ffcbbe"/><g><g><path d="m415.756 194.14h-17.615c-6.72 0-12.168-5.448-12.168-12.168 0-6.72 5.448-12.168 12.168-12.168h17.615c6.72 0 12.168 5.448 12.168 12.168.001 6.72-5.447 12.168-12.168 12.168z" fill="#db636e"/></g></g></g></g></g></g></g></g><path d="m429.742 484.056c11.53 0 20.876-9.347 20.876-20.876v-95.617h-337.882v116.493z" fill="#eaf2ff"/><path d="m444.695 367.563v95.617c0 11.529-9.347 20.876-20.876 20.876h67.305c11.53 0 20.876-9.347 20.876-20.876v-95.617z" fill="#dbe8f9"/><g><g><g><g><g><g><g><g><g><g><g><path d="m181.924 315.158v-47.66h-66.34v47.66c0 8.109-5.622 15.092-13.471 16.896 0 0 1.76 39.185 46.641 39.185s49.48-38.611 49.48-38.611l-2.237-.43c-8.169-1.572-14.073-8.72-14.073-17.04z" fill="#ffddce"/><path d="m49.792 480.719h12.019l1.775 3.337h170.163l1.83-3.337c-.001-14.218-.007-31.484-.002-43.974 0-38.966-20.714-73.818-52.574-93-25.718 13.806-58.335 10.086-80.334-11.153l-.556-.537c-.202.046-.398.105-.603.144l-18.394 3.54c-48.247 9.285-83.116 51.504-83.116 100.637v22.561c0 13.873 11.246 25.119 25.119 25.119h23.014z" fill="#e07f84"/><path d="m214.391 335.738-16.157-3.11c-6.312 6.085-13.502 10.71-21.145 13.913 32.063 17.61 53.153 51.628 53.153 89.833v47.68h3.507l1.83-3.337h11.751l1.872 3.337h23.188c13.873 0 25.119-11.246 25.119-25.119v-22.561c-.001-49.131-34.87-91.351-83.118-100.636z" fill="#db636e"/></g></g></g></g></g></g></g></g></g></g><path d="m132.968 297.096c4.165-3.661 7.761-7.844 10.758-12.406-.006-.001-.012-.001-.019-.002 1.371-2.087 2.617-4.253 3.736-6.485-23.385-.521-41.211-8.7-53.998-18.066-.189-.138-.377-.278-.564-.418-6.004-4.493-10.409-10.755-12.892-17.831-.261-.744-1.609-1.48-3.32-2.21.164.328.333.655.506.979 2.456 4.601 4.171 9.585 4.816 14.76 1.926 15.449 9.148 29.896 20.943 40.09 4.072 3.519 8.283 6.601 13.613 9.418l5.439.276c4.064-2.476 7.719-5.237 10.982-8.105z" fill="#ffddce"/><path d="m232.926 180.984-.073-.482c0-4.157-1.709-7.943-4.507-10.781-1.096-1.111-1.711-2.552-1.704-4.052.039-8.584-5.618-15.951-13.663-18.995-2.157-.816-3.702-2.539-4.285-4.618-1.812-6.464-7.852-11.318-15.189-11.843-1.709-.122-3.257-.994-4.258-2.384-3.07-4.262-8.282-7.069-14.206-7.069-1.613 0-3.171.212-4.648.604-2.431.646-5.005.002-6.734-1.7-4.987-4.908-10.421-4.985-14.904-4.985h-.001c-5.013 0-10.047.205-14.904 4.985-1.728 1.701-4.302 2.346-6.734 1.7-1.477-.392-3.035-.604-4.648-.604-2.061 0-4.032.347-5.861.969 1.636.592 3.344 1.523 5.106 2.954 3.337 2.71 3.512 5.263 7.245 5.53 3.259.235 6.249 1.34 8.639 2.947 8.074 5.428 4.776 11.221 10.834 13.513 8.081 3.057 13.701 10.445 13.663 18.995-.024 5.054 6.7 4.286 6.718 20.995.013 13.373-2.791 4.743-8.254 39.87-2.009 12.914-7.914 15.743-9.374 28.314-1.797 15.465-8.898 29.973-20.609 40.267-4.046 3.557-8.713 6.947-14.026 9.811 8.973 4.831 19.779 8.174 32.556 8.264 20.079-.312 35.245-8.604 46.02-18.075 11.711-10.293 18.812-24.802 20.609-40.267.598-5.144 2.295-10.1 4.759-14.655l.043-.079c2.289-4.232 3.833-8.825 4.573-13.58 1.291-8.299 3.451-21.254 4.756-24.055 3.002-6.448 4.223-13.841 3.061-21.494z" fill="#ffcbbe"/><path d="m153.52 259.703c.214-1.226.405-2.528.559-3.857 1.496-12.877 7.545-15.775 9.603-29.005 5.596-35.985 8.468-27.143 8.455-40.843-.018-17.117-6.907-16.33-6.882-21.507.039-8.758-5.718-16.326-13.996-19.458-6.205-2.348-2.827-8.283-11.098-13.843-2.448-1.646-5.512-2.779-8.85-3.019-3.824-.273-4.004-2.889-7.422-5.665l-7.283-.776c-3.504 1.152-6.307 3.272-8.344 6.099-1.002 1.391-2.551 2.263-4.261 2.386-7.337.525-13.376 5.379-15.188 11.843-.583 2.079-2.127 3.801-4.285 4.618-8.045 3.044-13.702 10.411-13.663 18.995.007 1.5-.608 2.941-1.704 4.052-2.799 2.838-4.507 6.624-4.507 10.781l-.073.482c-1.173 7.724.079 15.185 3.143 21.677 1.368 2.898 3.673 16.403 5.019 24.822.737 4.61 2.233 9.059 4.432 13.177 1.098 2.056 2.045 4.189 2.814 6.382 2.483 7.076 6.887 13.338 12.892 17.831.187.14.375.279.564.418 12.268 8.985 29.174 16.878 51.177 17.965 6.776-10.944 7.842-19.68 8.898-23.555z" fill="#756e78"/><path d="m232.926 180.984-.073-.482c0-4.157-1.709-7.943-4.507-10.781-1.096-1.111-1.711-2.552-1.704-4.052.039-8.584-5.618-15.951-13.663-18.995-2.157-.816-3.702-2.539-4.285-4.618-1.812-6.464-7.851-11.317-15.188-11.843-1.71-.122-3.259-.994-4.261-2.386-3.07-4.261-8.282-7.068-14.205-7.068-1.613 0-3.171.212-4.648.604-2.431.646-5.005.002-6.734-1.7-4.987-4.908-10.421-4.985-14.904-4.985h-.001c-5.013 0-10.047.205-14.904 4.985-1.728 1.701-4.302 2.346-6.734 1.7-1.477-.392-3.035-.604-4.648-.604-2.061 0-4.032.347-5.861.969 1.636.592 3.344 1.523 5.106 2.954 3.337 2.71 3.512 5.263 7.245 5.53 3.259.235 6.249 1.34 8.639 2.947 8.074 5.428 4.776 11.221 10.834 13.513 8.081 3.057 13.701 10.445 13.663 18.995-.024 5.054 6.7 4.286 6.718 20.995.013 13.373-2.791 4.743-8.254 39.87-2.009 12.914-7.914 15.743-9.374 28.314-1.173 10.098-4.622 19.779-10.125 28.155 2.633.223 5.333.36 8.119.376 24.237-.32 42.545-8.803 55.551-18.492.042-.031.084-.062.125-.094 5.98-4.477 10.29-10.801 12.691-17.876.786-2.317 1.78-4.566 2.947-6.724l.043-.079c2.289-4.232 3.833-8.825 4.573-13.58 1.291-8.299 3.451-21.254 4.756-24.055 3.004-6.447 4.225-13.84 3.063-21.493z" fill="#665e66"/></g></g><g fill="#d84a54"><path d="m63.586 484.056v-35.101c0-4.268-3.459-7.726-7.726-7.726s-7.726 3.459-7.726 7.726v35.101z"/><path d="m249.201 484.056v-35.101c0-4.268-3.459-7.726-7.726-7.726s-7.726 3.459-7.726 7.726v35.101z"/></g></g></g></g></g></svg>