<svg id="Capa_1" enable-background="new 0 0 512 512" height="512" viewBox="0 0 512 512" width="512" xmlns="http://www.w3.org/2000/svg"><g><path d="m465.213 284.677c0-9.941 6.37-18.418 15.241-21.574-.592-123.898-101.557-224.513-225.592-224.513-25.116 0-49.285 4.13-71.869 11.739 6.234 17.091 4.677 35.926-4.685 52.141l-50.257 87.047c-.75 1.3-2.094 2.075-3.594 2.075-1.501 0-2.845-.775-3.595-2.075l-39.826-68.979c-31.978 38.625-51.343 88.043-51.759 141.892 10.033 2.429 17.509 11.479 17.509 22.248 0 9.356-5.643 17.413-13.702 20.961 19.515 104.674 111.532 184.166 221.778 184.166 110.613 0 202.883-80.019 221.978-185.209-6.935-3.94-11.627-11.39-11.627-19.919zm-357.124 95.711c-12.624 0-22.894-10.27-22.894-22.894 0-12.623 10.27-22.893 22.894-22.893s22.894 10.27 22.894 22.893c-.001 12.624-10.271 22.894-22.894 22.894zm268.515-218.454c-12.624 0-22.894-10.27-22.894-22.894s10.27-22.894 22.894-22.894c12.623 0 22.893 10.27 22.893 22.894s-10.269 22.894-22.893 22.894z" fill="#eaf6ff"/><g fill="#c4e2ff"><path d="m102.937 335.193c-10.122-21.573-15.792-45.634-15.792-70.997 0-32.612 9.366-63.073 25.535-88.853l-8.389-14.53c-20.263 29.42-32.146 65.037-32.146 103.383 0 28.312 6.474 55.141 18.017 79.085 3.172-3.993 7.645-6.903 12.775-8.088z"/><path d="m178.308 102.47-10.711 18.551c25.439-15.562 55.322-24.542 87.265-24.542 37.738 0 72.601 12.532 100.656 33.648 2.017-4.752 5.596-8.686 10.088-11.157-30.749-23.504-69.141-37.49-110.744-37.49-26.233 0-51.187 5.568-73.757 15.566-.839 1.834-1.77 3.645-2.797 5.424z"/><path d="m126.125 371.568c-3.139 4.014-7.583 6.956-12.691 8.183 33.535 40.968 84.478 67.163 141.428 67.163.34 0 .672-.031 1-.074v-14.852c-.328-.044-.66-.074-1-.074-51.667 0-97.946-23.49-128.737-60.346z"/><path d="m386.085 159.871c22.83 28.657 36.495 64.923 36.495 104.325 0 4.143 3.358 7.5 7.5 7.5s7.5-3.357 7.5-7.5c0-43.414-15.229-83.331-40.612-114.714-2.352 4.569-6.195 8.246-10.883 10.389z"/></g><path d="m254.862 138.368c-69.382 0-125.829 56.446-125.829 125.828 0 69.383 56.447 125.829 125.829 125.829.34 0 .672-.031 1-.074v-14.852c-.328-.044-.66-.074-1-.074-61.111 0-110.829-49.718-110.829-110.829 0-61.11 49.718-110.828 110.829-110.828s110.829 49.718 110.829 110.828c0 4.143 3.358 7.5 7.5 7.5s7.5-3.357 7.5-7.5c0-69.382-56.446-125.828-125.829-125.828z" fill="#c4e2ff"/><g><circle cx="254.862" cy="264.196" fill="#26a6fe" r="61.44"/></g><path d="m254.862 314.81c-16.099-11.085-26.677-29.632-26.677-50.614 0-27.842 18.621-51.403 44.059-58.921-5.515-1.63-11.345-2.52-17.381-2.52-33.878 0-61.44 27.562-61.44 61.44s27.562 61.44 61.44 61.44v-10.825z" fill="#0593fc"/><path d="m254.862 489.804c24.459 0 48.015-3.928 70.088-11.16l-70.088-214.447z" fill="#fe646f"/><path d="m254.862 489.804c8.746 0 17.372-.518 25.862-1.491v-144.986l-25.862-79.13z" fill="#fd4755"/><g fill="#c4e2ff"><path d="m73.602 107.659c-36.192 41.85-58.161 96.317-58.337 155.818 2.665-1.089 5.577-1.694 8.629-1.694 2.214 0 4.354.322 6.381.912.353-53.577 19.548-102.763 51.294-141.237z"/><path d="m178.308 40.288c2.05 3.55 3.721 7.227 5.023 10.982 22.478-7.571 46.533-11.681 71.531-11.681 123.61 0 224.211 100.373 224.597 223.894 2.67-1.094 5.588-1.701 8.647-1.701 2.201 0 4.327.318 6.343.901-.818-131.424-107.973-238.093-239.587-238.093-27.352 0-53.643 4.619-78.148 13.098.547.852 1.083 1.715 1.594 2.6z"/><path d="m488.106 307.57c-4.474 0-8.649-1.295-12.18-3.523-18.861 104.906-110.813 184.756-221.064 184.756-109.846 0-201.516-79.267-220.843-183.602-3.055 1.513-6.492 2.368-10.126 2.368-1.643 0-3.246-.178-4.792-.509 20.264 111.737 118.27 196.742 235.761 196.742 117.359 0 215.272-84.814 235.688-196.365-.803.087-1.618.133-2.444.133z"/></g><g><circle cx="376.604" cy="139.041" fill="#af66da" r="23.893"/></g><g><path d="m373.042 139.041c0-9.56 5.616-17.805 13.728-21.625-3.085-1.453-6.53-2.269-10.166-2.269-13.196 0-23.893 10.697-23.893 23.893s10.697 23.893 23.893 23.893c3.636 0 7.08-.816 10.166-2.269-8.111-3.818-13.728-12.063-13.728-21.623z" fill="#9857bd"/></g><g><circle cx="488.107" cy="284.676" fill="#05e39c" r="23.893"/></g><g><path d="m484.7 284.676c0-9.529 5.58-17.754 13.65-21.589-3.105-1.476-6.577-2.304-10.243-2.304-13.196 0-23.893 10.697-23.893 23.893s10.697 23.893 23.893 23.893c3.666 0 7.139-.828 10.243-2.304-8.07-3.835-13.65-12.059-13.65-21.589z" fill="#0ed290"/></g><g><circle cx="23.893" cy="284.676" fill="#05e39c" r="23.893"/></g><g><path d="m21.751 284.676c0-9.278 5.292-17.314 13.018-21.273-3.263-1.672-6.957-2.621-10.875-2.621-13.197.001-23.894 10.698-23.894 23.894s10.697 23.893 23.893 23.893c3.918 0 7.612-.949 10.875-2.621-7.726-3.957-13.017-11.994-13.017-21.272z" fill="#0ed290"/></g><g><circle cx="108.089" cy="357.494" fill="#af66da" r="23.893"/></g><g><path d="m105.594 357.494c0-9.349 5.372-17.438 13.194-21.363-3.22-1.616-6.851-2.53-10.699-2.53-13.196 0-23.893 10.697-23.893 23.893s10.697 23.893 23.893 23.893c3.848 0 7.48-.915 10.699-2.53-7.823-3.925-13.194-12.014-13.194-21.363z" fill="#9857bd"/></g><g><g><path d="m128.918 190.017 50.257-87.047c24.319-42.121-6.08-94.773-54.717-94.773-48.638 0-79.036 52.652-54.717 94.773l50.257 87.047c1.981 3.433 6.937 3.433 8.92 0z" fill="#fe646f"/></g><g><path d="m104.01 102.97c-21.312-36.913-.6-81.911 37.582-92.475-5.387-1.491-11.121-2.298-17.135-2.298-48.638 0-79.036 52.652-54.717 94.773l50.257 87.047c1.983 3.434 6.939 3.434 8.922 0l12.675-21.953z" fill="#fd4755"/></g><g><circle cx="124.457" cy="74.339" fill="#fff" r="25.66"/></g><g><path d="m121.235 74.339c0-10.148 5.892-18.919 14.441-23.081-3.389-1.651-7.195-2.579-11.219-2.579-14.172 0-25.66 11.488-25.66 25.66s11.488 25.661 25.66 25.661c4.024 0 7.83-.928 11.219-2.579-8.549-4.163-14.441-12.933-14.441-23.082z" fill="#eaf6ff"/></g><g><path d="m124.457 107.5c-18.285 0-33.161-14.876-33.161-33.16s14.876-33.16 33.161-33.16 33.16 14.876 33.16 33.16-14.875 33.16-33.16 33.16zm0-51.32c-10.014 0-18.161 8.146-18.161 18.16s8.147 18.16 18.161 18.16 18.16-8.146 18.16-18.16-8.146-18.16-18.16-18.16z" fill="#fd8087"/></g></g></g></svg>