<svg height="511pt" viewBox="-8 1 511 511.99983" width="511pt" xmlns="http://www.w3.org/2000/svg"><path d="m258.023438 352.488281 51.5-48.371093-20.449219-3.796876c-9.867188-1.984374-16.964844-13.433593-16.964844-23.5v-44.855468h-95.636719v44.855468c0 10.066407-7.101562 21.515626-16.96875 23.5l-20.445312 3.796876 51.5 48.371093c18.960937 17.8125 48.503906 17.8125 67.464844 0zm0 0" fill="#ffe7cf"/><path d="m220.03125 296.214844c0 10.066406 7.101562 21.511718 16.96875 23.496094l23.9375 7.355468 18.625 5.1875 29.960938-28.136718-20.449219-3.796876c-9.867188-1.984374-16.964844-13.433593-16.964844-23.5v-44.855468h-52.078125zm0 0" fill="#efd5bd"/><path d="m323.042969 119.980469h-6.300781v-29.21875c0-24.980469-10.257813-49.1875-29.1875-65.488281-14.84375-12.78125-35.703126-23.933594-63.265626-24.242188-27.558593.308594-48.421874 11.460938-63.261718 24.242188-18.929688 16.300781-29.1875 40.507812-29.1875 65.488281v29.222656h-6.304688c-9.238281 0-16.730468 7.488281-16.730468 16.730469v18.542968c0 9.238282 7.492187 16.730469 16.730468 16.730469h6.328125c.523438 24.285157 10.726563 47.660157 29.164063 63.53125 14.839844 12.78125 35.703125 23.933594 63.261718 24.242188 27.5625-.308594 48.421876-11.460938 63.265626-24.242188 18.4375-15.871093 28.640624-39.246093 29.164062-63.53125h6.324219c9.242187 0 16.734375-7.492187 16.734375-16.730469v-18.542968c0-9.242188-7.492188-16.734375-16.734375-16.734375zm0 0" fill="#ffe7cf"/><path d="m323.042969 119.980469h-6.300781v-29.21875c0-24.980469-10.257813-49.1875-29.1875-65.488281-14.84375-12.78125-35.703126-23.933594-63.265626-24.242188-9.40625.105469-18.03125 1.476562-25.90625 3.742188 15.191407 4.371093 27.578126 12.082031 37.355469 20.5 18.929688 16.300781 29.1875 40.507812 29.1875 65.488281v21.820312l-.027343 59.40625c-.519532 24.285157-10.722657 47.660157-29.160157 63.535157-9.777343 8.414062-22.164062 16.125-37.355469 20.5 7.875 2.265624 16.5 3.636718 25.90625 3.742187 27.5625-.308594 48.421876-11.464844 63.265626-24.242187 18.4375-15.875 28.640624-39.25 29.164062-63.535157h6.324219c9.242187 0 16.734375-7.488281 16.734375-16.730469v-18.542968c0-9.242188-7.492188-16.734375-16.734375-16.734375zm0 0" fill="#efd5bd"/><path d="m285.238281 296.921875s-39.507812 56.160156-60.949219 56.160156c-21.4375 0-60.945312-56.160156-60.945312-56.160156-2.421875-1.808594-5.542969-2.390625-8.453125-1.582031l-90.027344 25.089844c-24.175781 6.738281-42.292969 26.816406-46.515625 51.554687l-17.585937 102.945313c-1.878907 11.003906 6.597656 21.054687 17.765625 21.054687h411.527344c11.167968 0 19.644531-10.050781 17.765624-21.054687l-17.585937-102.945313c-4.222656-24.738281-22.339844-44.816406-46.515625-51.554687l-90.027344-25.089844c-2.910156-.808594-6.03125-.226563-8.453125 1.582031zm0 0" fill="#f9644b"/><path d="m447.820312 474.929688-17.585937-102.945313c-4.222656-24.738281-22.34375-44.816406-46.515625-51.554687l-90.027344-25.089844c-2.910156-.808594-6.03125-.226563-8.453125 1.582031 0 0-10.871093 15.449219-24.300781 30.144531l81.878906 22.816406c17.457032 4.867188 30.542969 19.363282 33.59375 37.230469l18.59375 108.871094h35.050782c11.167968 0 19.644531-10.050781 17.765624-21.054687zm0 0" fill="#db3f2e"/><path d="m163.84375 295.742188 60.445312 57.339843-38.371093 13.074219c-9.402344 3.203125-19.808594.417969-26.355469-7.054688l-45.820312-52.292968 44.59375-12.433594c1.949218-.546875 4.039062-.027344 5.507812 1.367188zm0 0" fill="#baced8"/><path d="m284.734375 295.742188-60.445313 57.339843 38.375 13.074219c9.402344 3.203125 19.808594.417969 26.351563-7.054688l45.824219-52.292968-44.597656-12.433594c-1.949219-.546875-4.039063-.027344-5.507813 1.367188zm0 0" fill="#baced8"/><path d="m487.394531 404.183594h-5.992187c-3.546875 0-6.675782-2.285156-7.796875-5.652344-1.085938-3.257812-2.394531-6.410156-3.914063-9.445312-1.589844-3.175782-1-7.007813 1.511719-9.519532l4.238281-4.238281c3.207032-3.203125 3.207032-8.402344 0-11.609375l-12.746094-12.742188c-3.207031-3.207031-8.402343-3.207031-11.609374 0l-4.234376 4.234376c-2.515624 2.511718-6.34375 3.101562-9.523437 1.511718-3.03125-1.515625-6.1875-2.828125-9.445313-3.910156-3.367187-1.121094-5.652343-4.25-5.652343-7.796875v-5.992187c0-4.535157-3.675781-8.210938-8.207031-8.210938h-18.027344c-4.535156 0-8.207032 3.675781-8.207032 8.210938v5.992187c0 3.546875-2.289062 6.675781-5.652343 7.796875-3.257813 1.082031-6.414063 2.394531-9.445313 3.910156-3.179687 1.589844-7.011718 1-9.523437-1.511718l-4.234375-4.234376c-3.207032-3.207031-8.40625-3.207031-11.609375 0l-12.746094 12.742188c-3.207031 3.207031-3.207031 8.40625 0 11.609375l4.234375 4.238281c2.511719 2.511719 3.101562 6.34375 1.511719 9.519532-1.515625 3.035156-2.824219 6.1875-3.910157 9.445312-1.121093 3.367188-4.25 5.652344-7.796874 5.652344h-5.992188c-4.53125 0-8.207031 3.675781-8.207031 8.210937v18.023438c0 4.535156 3.675781 8.210937 8.207031 8.210937h5.992188c3.546874 0 6.675781 2.285156 7.796874 5.652344 1.085938 3.257812 2.394532 6.410156 3.910157 9.445312 1.589843 3.175782 1 7.007813-1.511719 9.519532l-4.234375 4.238281c-3.207031 3.203125-3.207031 8.402344 0 11.609375l12.746094 12.742188c3.203125 3.207031 8.402343 3.207031 11.609375 0l4.234375-4.234376c2.511719-2.511718 6.34375-3.101562 9.523437-1.511718 3.03125 1.515625 6.1875 2.828125 9.445313 3.910156 3.363281 1.121094 5.652343 4.25 5.652343 7.800781v5.988281c0 4.535157 3.671876 8.210938 8.207032 8.210938h18.027344c4.53125 0 8.207031-3.675781 8.207031-8.210938v-5.988281c0-3.550781 2.285156-6.679687 5.652343-7.800781 3.257813-1.082031 6.414063-2.394531 9.445313-3.910156 3.179687-1.589844 7.007813-1 9.523437 1.511718l4.234376 4.234376c3.207031 3.207031 8.402343 3.207031 11.609374 0l12.746094-12.742188c3.207032-3.207031 3.207032-8.40625 0-11.609375l-4.238281-4.238281c-2.511719-2.511719-3.097656-6.34375-1.511719-9.519532 1.519532-3.035156 2.828125-6.1875 3.914063-9.445312 1.121093-3.367188 4.25-5.652344 7.796875-5.652344h5.992187c4.53125 0 8.207031-3.675781 8.207031-8.210937v-18.023438c0-4.535156-3.675781-8.210937-8.207031-8.210937zm-82.386719 47.136718c-16.519531 0-29.914062-13.390624-29.914062-29.914062 0-16.519531 13.394531-29.914062 29.914062-29.914062 16.523438 0 29.914063 13.394531 29.914063 29.914062 0 16.523438-13.390625 29.914062-29.914063 29.914062zm0 0" fill="#e1effb"/><path d="m295.566406 14.960938-57.714844-13.234376c-10.226562-2.34375-20.855468-2.300781-31.058593.128907l-54.140625 12.886719c-20.421875 4.863281-34.832032 23.105468-34.832032 44.09375v51.261718h212.941407v-50.957031c0-21.128906-14.601563-39.453125-35.195313-44.179687zm0 0" fill="#f9644b"/><path d="m295.566406 14.960938-57.714844-13.234376c-10.226562-2.34375-20.855468-2.300781-31.058593.128907l-9.953125 2.367187 46.824218 10.738282c20.59375 4.722656 35.195313 23.050781 35.195313 44.179687v50.957031h51.902344v-50.957031c0-21.128906-14.601563-39.453125-35.195313-44.179687zm0 0" fill="#db3f2e"/><path d="m305.417969 135.800781c-53.722657-16.5-108.535157-16.5-162.257813 0-9.3125 2.863281-19.136718-2.632812-21.667968-12.042969-1.222657-4.550781-2.449219-9.105468-3.671876-13.660156 70.199219-26.308594 142.734376-26.3125 212.941407 0-1.226563 4.554688-2.449219 9.109375-3.675781 13.660156-2.53125 9.410157-12.355469 14.90625-21.667969 12.042969zm0 0" fill="#db3f2e"/><path d="m177.066406 440.523438h-58.914062c-2.433594 0-4.410156-1.972657-4.410156-4.410157v-20.285156c0-2.4375 1.976562-4.410156 4.410156-4.410156h58.914062c2.4375 0 4.410156 1.972656 4.410156 4.410156v20.285156c0 2.4375-1.972656 4.410157-4.410156 4.410157zm0 0" fill="#ffb123"/><path d="m487.394531 404.183594h-5.992187c-3.546875 0-6.675782-2.285156-7.796875-5.652344-1.085938-3.257812-2.394531-6.410156-3.914063-9.445312-1.589844-3.175782-1-7.007813 1.511719-9.519532l4.238281-4.238281c3.207032-3.203125 3.207032-8.402344 0-11.609375l-12.746094-12.742188c-3.207031-3.207031-8.402343-3.207031-11.609374 0l-4.234376 4.234376c-2.515624 2.511718-6.34375 3.101562-9.523437 1.511718-3.03125-1.515625-6.1875-2.828125-9.445313-3.910156-3.367187-1.121094-5.652343-4.25-5.652343-7.796875v-5.992187c0-4.535157-3.675781-8.210938-8.207031-8.210938h-18.027344c-4.09375 0-7.488282 3-8.105469 6.917969 32.769531 13.640625 55.808594 45.96875 55.808594 83.675781 0 37.710938-23.039063 70.039062-55.808594 83.675781.617187 3.917969 4.011719 6.917969 8.105469 6.917969h18.027344c4.53125 0 8.207031-3.675781 8.207031-8.210938v-5.988281c0-3.550781 2.285156-6.675781 5.652343-7.796875 3.257813-1.085937 6.410157-2.394531 9.445313-3.914062 3.179687-1.589844 7.007813-1 9.523437 1.511718l4.234376 4.238282c3.207031 3.203125 8.402343 3.203125 11.609374 0l12.746094-12.746094c3.207032-3.207031 3.207032-8.402344 0-11.609375l-4.238281-4.238281c-2.511719-2.511719-3.097656-6.34375-1.511719-9.519532 1.519532-3.03125 2.828125-6.1875 3.914063-9.445312 1.121093-3.367188 4.25-5.652344 7.796875-5.652344h5.992187c4.53125 0 8.207031-3.675781 8.207031-8.210937v-18.023438c0-4.535156-3.675781-8.210937-8.207031-8.210937zm0 0" fill="#baced8"/></svg>