<svg id="Icons" height="512" viewBox="0 0 60 60" width="512" xmlns="http://www.w3.org/2000/svg"><path d="m21 20h-2a1 1 0 0 1 0-2h2a1 1 0 0 1 0 2z" fill="#b9bfcc"/><path d="m14 47a1 1 0 0 1 -.788-1.614l7-9a1 1 0 1 1 1.578 1.228l-7 9a1 1 0 0 1 -.79.386z" fill="#8991a0"/><path d="m3.43 35.66 4.6-.65a1.01 1.01 0 0 1 1.13.86l.8 5.8-5.96 1.33z" fill="#d69247"/><path d="m58 26v10l-15 2 1-21h5z" fill="#ccd0da"/><path d="m21 37v-21a2 2 0 0 1 2-2h19a2 2 0 0 1 2 2v21z" fill="#d69247"/><path d="m55 41h3a1 1 0 0 0 1-1v-3a1 1 0 0 0 -1-1h-37a1 1 0 0 0 -1 1v3a1 1 0 0 0 1 1z" fill="#b9bfcc"/><circle cx="29" cy="41" fill="#454a54" r="5"/><circle cx="50" cy="41" fill="#454a54" r="5"/><path d="m58 22v4h-7a2.006 2.006 0 0 1 -2-2v-7h4a5.087 5.087 0 0 1 2.76.82 5.329 5.329 0 0 1 1.42 1.42 5.087 5.087 0 0 1 .82 2.76z" fill="#2783ec"/><circle cx="4.5" cy="43.5" fill="#454a54" r="2.5"/><g fill="#c17f3e"><path d="m38 32h-12a1 1 0 0 1 0-2h12a1 1 0 0 1 0 2z"/><path d="m38 28h-12a1 1 0 0 1 0-2h12a1 1 0 0 1 0 2z"/><path d="m38 24h-12a1 1 0 0 1 0-2h12a1 1 0 0 1 0 2z"/><path d="m38 20h-12a1 1 0 0 1 0-2h12a1 1 0 0 1 0 2z"/></g><path d="m53 31h-2a1 1 0 0 1 0-2h2a1 1 0 0 1 0 2z" fill="#8991a0"/><path d="m57.18 19.24-3.47 3.47a1.014 1.014 0 0 1 -1.42 0 1.008 1.008 0 0 1 0-1.42l3.47-3.47a5.329 5.329 0 0 1 1.42 1.42z" fill="#439af6"/><path d="m59 47h-58a1 1 0 0 1 0-2h58a1 1 0 0 1 0 2z" fill="#2f333a"/><path d="m12.23 42.19-5.23 1.24a2.532 2.532 0 0 0 -.88-1.84l5.65-1.34a1 1 0 1 1 .46 1.94z" fill="#d92936"/><path d="m4.07 30.84.77 10.18c-.11-.01-.22-.02-.34-.02a2.468 2.468 0 0 0 -1.63.61l-.8-10.61h-1.07a1 1 0 0 1 0-2h1.07a1.983 1.983 0 0 1 2 1.84z" fill="#d92936"/></svg>