<svg id="Capa_1" enable-background="new 0 0 512 512" height="512" viewBox="0 0 512 512" width="512" xmlns="http://www.w3.org/2000/svg"><g><path d="m447.385 401.977c4.503-2.6 7.277-7.404 7.277-12.604v-264.099c0-5.2-2.774-10.004-7.277-12.604l-184.108-106.294c-4.503-2.6-10.051-2.6-14.554 0l-184.108 106.294c-4.503 2.6-7.277 7.404-7.277 12.604v264.098c0 5.2 2.774 10.004 7.277 12.604l184.108 106.295c4.503 2.6 10.051 2.6 14.554 0z" fill="#ffab56"/><path d="m457.989 114.951c-2.133-3.696-6.861-4.963-10.554-2.828l-85.799 49.536-193.782-111.881c-3.698-2.135-8.422-.868-10.554 2.828-2.134 3.696-.867 8.421 2.828 10.554l186.056 107.42-90.184 52.068-191.104-110.334c-3.698-2.135-8.423-.868-10.554 2.828-2.134 3.696-.867 8.421 2.828 10.554l191.103 110.334v266.92c0 4.268 3.459 7.726 7.726 7.726s7.726-3.459 7.726-7.726v-266.92l191.435-110.525c3.696-2.133 4.962-6.858 2.829-10.554z" fill="#ff982a"/><path d="m302.19 424.272c-.741.428-1.197 1.219-1.197 2.075v60.149l103.759-59.905v-57.443c0-.856-.457-1.648-1.199-2.076s-1.656-.428-2.397.001z" fill="#6c5e69"/><path d="m382.803 377.681v61.582l21.948-12.672v-57.443c0-.856-.457-1.648-1.199-2.076s-1.656-.428-2.397.001z" fill="#574d56"/><g><path d="m215.474 446.54c-1.311 0-2.64-.334-3.856-1.036l-58.524-33.79c-3.695-2.134-4.962-6.859-2.828-10.554 2.133-3.696 6.86-4.962 10.554-2.828l58.524 33.79c3.695 2.134 4.962 6.859 2.828 10.554-1.43 2.479-4.027 3.864-6.698 3.864z" fill="#f4f8f9"/></g><path d="m512 334.472h-512v-164.971c0-3.405 2.76-6.165 6.165-6.165h499.67c3.405 0 6.165 2.76 6.165 6.165z" fill="#6ce79a"/><path d="m505.835 163.337h-25.239c3.405 0 6.165 2.76 6.165 6.165v164.97h25.239v-164.97c0-3.405-2.76-6.165-6.165-6.165z" fill="#00d8a2"/><path d="m0 334.472 57.338 43.311v-43.311z" fill="#00c4a4"/><path d="m512 334.472-57.338 43.311v-43.311z" fill="#00c4a4"/><g fill="#f4f8f9"><path d="m122.165 210.254c-.026 0-.051 0-.076.001-4.268.041-7.693 3.534-7.652 7.8l.365 37.706-29.042-42.055c-1.922-2.783-5.426-3.99-8.658-2.986-3.227 1.007-5.427 3.995-5.427 7.376v61.732c0 4.268 3.459 7.726 7.726 7.726s7.726-3.459 7.726-7.726v-36.947l27.657 40.049c2.271 3.281 6.058 4.672 9.649 3.554 3.665-1.145 6.033-4.576 6.033-8.816l-.577-59.763c-.041-4.241-3.492-7.651-7.724-7.651z"/><path d="m464.014 274.268-27.58-26.61 25.25-23.209c3.142-2.888 3.348-7.776.46-10.917-2.887-3.142-7.775-3.348-10.917-.46l-20.315 18.673v-13.764c0-4.267-3.459-7.726-7.726-7.726-4.268 0-7.726 3.459-7.726 7.726v61.848c0 4.268 3.459 7.726 7.726 7.726 4.268 0 7.726-3.459 7.726-7.726v-16.026l22.374 21.586c1.499 1.447 3.433 2.166 5.363 2.166 2.024 0 4.045-.791 5.561-2.362 2.963-3.071 2.875-7.962-.196-10.925z"/><path d="m53.351 210.254c-4.268 0-7.726 3.459-7.726 7.726v61.848c0 4.268 3.459 7.726 7.726 7.726s7.726-3.459 7.726-7.726v-61.848c0-4.266-3.459-7.726-7.726-7.726z"/><path d="m406.738 265.176c-3.271-2.739-8.144-2.313-10.885.958-.538.642-1.119 1.241-1.727 1.784-3.117 2.777-7.098 4.184-11.833 4.184-12.791 0-23.197-10.406-23.197-23.198 0-12.791 10.406-23.197 23.197-23.197 4.651 0 9.133 1.368 12.964 3.957 3.535 2.388 8.338 1.46 10.727-2.076s1.46-8.339-2.075-10.728c-6.395-4.321-13.87-6.606-21.616-6.606-21.312 0-38.65 17.338-38.65 38.65s17.338 38.65 38.65 38.65c8.518 0 16.164-2.8 22.109-8.096 1.167-1.038 2.276-2.182 3.295-3.397 2.739-3.27 2.311-8.143-.959-10.885z"/><path d="m187.177 242.143c-7.598-2.802-14.671-5.855-16.84-6.804-1.686-1.355-1.63-3.242-1.516-4.029.156-1.092.95-3.763 4.923-4.959 8.705-2.623 16.775 3.737 17.023 3.936 3.264 2.709 8.113 2.279 10.847-.976 2.745-3.266 2.324-8.14-.943-10.886-.585-.49-14.489-11.96-31.384-6.87-8.537 2.571-14.576 9.3-15.763 17.56-1.112 7.749 2.247 15.204 8.768 19.454.341.222.699.418 1.071.584.358.16 8.874 3.951 18.466 7.489 2.713 1 8.934 3.824 8.113 8.425-.618 3.459-4.83 7.036-10.809 7.036-6.148 0-12.064-2.479-15.828-6.631-2.865-3.162-7.751-3.401-10.913-.535-3.161 2.865-3.401 7.752-.535 10.913 6.643 7.329 16.84 11.705 27.277 11.705 13.032 0 23.975-8.316 26.021-19.773 1.538-8.622-2.377-19.884-17.978-25.639z"/><path d="m252.57 210.254h-34.156c-4.268 0-7.726 3.459-7.726 7.726s3.459 7.726 7.726 7.726h9.283v54.121c0 4.268 3.459 7.726 7.726 7.726 4.268 0 7.726-3.459 7.726-7.726v-54.121h9.421c4.268 0 7.726-3.459 7.726-7.726 0-4.266-3.458-7.726-7.726-7.726z"/><path d="m296.879 210.254c-21.312 0-38.651 17.338-38.651 38.65s17.339 38.65 38.651 38.65 38.65-17.338 38.65-38.65-17.338-38.65-38.65-38.65zm0 61.848c-12.792 0-23.198-10.406-23.198-23.198 0-12.791 10.406-23.197 23.198-23.197 12.791 0 23.197 10.406 23.197 23.197s-10.406 23.198-23.197 23.198z"/></g><path d="m406.926 118.097 17.043 4.361h22.83l39.548-26.533 9.951-23.817-10.405-46.046-22.342-21.636-7.108-2.387c-3.148-.467-6.367-.715-9.644-.715-36.01 0-65.201 29.192-65.201 65.201-.001 20.987 9.926 39.646 25.328 51.572z" fill="#6ce79a"/><path d="m456.443 2.039c15.402 11.926 25.329 30.584 25.329 51.571 0 36.01-29.192 65.201-65.201 65.201-3.278 0-6.497-.248-9.644-.715 11.025 8.536 24.85 13.63 39.872 13.63 36.01 0 65.201-29.192 65.201-65.201 0-32.732-24.122-59.824-55.557-64.486z" fill="#00d8a2"/><g><path d="m439.074 91.774c-2.069 0-4.054-.83-5.508-2.308l-16.742-17.022c-2.993-3.042-2.952-7.934.091-10.927 3.039-2.991 7.932-2.953 10.926.091l11.043 11.227 26.692-29.059c2.886-3.143 7.774-3.35 10.917-.463s3.35 7.774.464 10.917l-32.191 35.045c-1.433 1.559-3.442 2.462-5.558 2.498-.046 0-.091.001-.134.001z" fill="#f4f8f9"/></g></g></svg>