<svg height="512" viewBox="0 0 64 64" width="512" xmlns="http://www.w3.org/2000/svg"><g id="support-setting-call-headphone-help"><path d="m41.54 24a9.244 9.244 0 0 1 -.68 1.62l3.16 3.16-4.24 4.24-3.16-3.16a9.244 9.244 0 0 1 -1.62.68v4.46h-6v-4.46a9.244 9.244 0 0 1 -1.62-.68l-3.16 3.16-4.24-4.24 3.16-3.16a9.244 9.244 0 0 1 -.68-1.62h-4.46v-6h4.46a9.244 9.244 0 0 1 .68-1.62l-3.16-3.16 4.24-4.24 3.16 3.16a9.244 9.244 0 0 1 1.62-.68v-4.46h6v4.46a9.244 9.244 0 0 1 1.62.68l3.16-3.16 4.24 4.24-3.16 3.16a9.244 9.244 0 0 1 .68 1.62h4.46v6z" fill="#ed1c24"/><circle cx="32" cy="21" fill="#ffcd00" r="5"/><path d="m32 16a4.988 4.988 0 0 0 -1 .1 5 5 0 0 1 0 9.8 5 5 0 1 0 1-9.9z" fill="#ebbf00"/><path d="m54 24h-4v10h2 2z" fill="#006df0"/><path d="m55 34a5 5 0 0 0 0-10h-1v10z" fill="#2488ff"/><path d="m38 42h2a2 2 0 0 0 0-4h-2a2 2 0 0 0 0 4z" fill="#58595b"/><path d="m10 24h4v10h-4z" fill="#006df0"/><path d="m9 24a5 5 0 0 0 0 10h1v-10z" fill="#2488ff"/><path d="m29.942 51 11.926 3.2a3 3 0 0 0 3.674-2.121 3 3 0 0 0 -2.121-3.679l-14.92-4a6 6 0 0 0 -3.008-.025l-6.493 1.625v12l2.733 1.367a6.007 6.007 0 0 0 2.683.633h14.977a5.993 5.993 0 0 0 3-.8l16.8-9.7a3 3 0 0 0 -3-5.2l-10.673 6.16" fill="#ffbcab"/><path d="m11 43h8v18h-8z" fill="#006df0"/><path d="m3 45h8v14h-8z" fill="#57a4ff"/><path d="m9 45h2v14h-2z" fill="#2488ff"/><path d="m45.54 52.07a3.009 3.009 0 0 1 -3.67 2.13l-11.3-3.03.19-.95 11.11 2.98a3.009 3.009 0 0 0 3.67-2.13 2.931 2.931 0 0 0 .05-.29 2.822 2.822 0 0 1 -.05 1.29z" fill="#ff9478"/><g fill="#231f20"><path d="m61.15 44.9a4.007 4.007 0 0 0 -5.46-1.47l-9.75 5.63a3.982 3.982 0 0 0 -2.26-1.63l-14.92-3.99a6.957 6.957 0 0 0 -3.51-.03l-5.25 1.31v-1.72a1 1 0 0 0 -1-1h-8a1 1 0 0 0 -1 1v1h-7a1 1 0 0 0 -1 1v14a1 1 0 0 0 1 1h7v1a1 1 0 0 0 1 1h8a1 1 0 0 0 1-1v-1.38l1.29.64a7.063 7.063 0 0 0 3.13.74h14.97a6.93 6.93 0 0 0 3.5-.94l16.8-9.7a4.009 4.009 0 0 0 1.46-5.46zm-51.15 13.1h-6v-12h6zm8 2h-6v-16h6zm40.69-11.37-16.8 9.7a4.982 4.982 0 0 1 -2.5.67h-14.97a4.956 4.956 0 0 1 -2.24-.53l-2.18-1.09v-10.6l5.73-1.43a4.964 4.964 0 0 1 2.51.02l14.92 4a1.991 1.991 0 0 1 .48 3.66 1.95 1.95 0 0 1 -1.51.2l-11.93-3.2a1 1 0 0 0 -.52 1.94l11.93 3.19a4.072 4.072 0 0 0 1.04.14 3.916 3.916 0 0 0 1.99-.54 3.975 3.975 0 0 0 1.87-2.43 4.118 4.118 0 0 0 .11-1.35l10.07-5.81a2.025 2.025 0 0 1 2.72.73 2 2 0 0 1 -.72 2.73z"/><path d="m15 59a1 1 0 0 0 1-1v-1a1 1 0 0 0 -2 0v1a1 1 0 0 0 1 1z"/><path d="m46 17h-3.75l-.18-.42 2.66-2.65a1.008 1.008 0 0 0 0-1.42l-4.24-4.24a1.008 1.008 0 0 0 -1.42 0l-2.65 2.66-.42-.18v-3.75a1 1 0 0 0 -1-1h-6a1 1 0 0 0 -1 1v3.75l-.42.18-2.65-2.66a1.008 1.008 0 0 0 -1.42 0l-4.24 4.24a1.008 1.008 0 0 0 0 1.42l2.66 2.65-.18.42h-3.75a1 1 0 0 0 -1 1v6a1 1 0 0 0 1 1h3.75l.18.42-2.66 2.65a1.033 1.033 0 0 0 -.29.71 1.052 1.052 0 0 0 .29.71l4.24 4.24a1.033 1.033 0 0 0 .71.29 1.052 1.052 0 0 0 .71-.29l2.65-2.66.42.18v3.75a1 1 0 0 0 1 1h6a1 1 0 0 0 1-1v-3.75l.42-.18 2.65 2.66a1.047 1.047 0 0 0 1.42 0l4.24-4.24a1.052 1.052 0 0 0 .29-.71 1.033 1.033 0 0 0 -.29-.71l-2.66-2.65.18-.42h3.75a1 1 0 0 0 1-1v-6a1 1 0 0 0 -1-1zm-1 6h-3.46a1 1 0 0 0 -.95.69 7.906 7.906 0 0 1 -.61 1.45 1.016 1.016 0 0 0 .17 1.19l2.46 2.45-2.83 2.83-2.45-2.46a1.016 1.016 0 0 0 -1.19-.17 7.906 7.906 0 0 1 -1.45.61 1 1 0 0 0 -.69.95v3.46h-4v-3.46a1 1 0 0 0 -.69-.95 7.906 7.906 0 0 1 -1.45-.61 1.016 1.016 0 0 0 -1.19.17l-2.45 2.46-2.83-2.83 2.46-2.45a1.016 1.016 0 0 0 .17-1.19 7.906 7.906 0 0 1 -.61-1.45 1 1 0 0 0 -.95-.69h-3.46v-4h3.46a1 1 0 0 0 .95-.69 7.906 7.906 0 0 1 .61-1.45 1.016 1.016 0 0 0 -.17-1.19l-2.46-2.45 2.83-2.83 2.45 2.46a1.016 1.016 0 0 0 1.19.17 7.906 7.906 0 0 1 1.45-.61 1 1 0 0 0 .69-.95v-3.46h4v3.46a1 1 0 0 0 .69.95 7.906 7.906 0 0 1 1.45.61 1.016 1.016 0 0 0 1.19-.17l2.45-2.46 2.83 2.83-2.46 2.45a1.016 1.016 0 0 0 -.17 1.19 7.906 7.906 0 0 1 .61 1.45 1 1 0 0 0 .95.69h3.46z"/><path d="m38 21a6 6 0 1 0 -6 6 6.006 6.006 0 0 0 6-6zm-10 0a4 4 0 1 1 4 4 4 4 0 0 1 -4-4z"/><path d="m55 23h-2a21 21 0 0 0 -42 0h-2a6 6 0 0 0 0 12h5a1 1 0 0 0 1-1v-10a1 1 0 0 0 -1-1h-1a19 19 0 0 1 38 0h-1a1 1 0 0 0 -1 1v10a1 1 0 0 0 1 1h1v3a1 1 0 0 1 -1 1h-7.18a3.01 3.01 0 0 0 -2.82-2h-2a3 3 0 0 0 0 6h2a3.01 3.01 0 0 0 2.82-2h7.18a3.009 3.009 0 0 0 3-3v-3h2a6 6 0 0 0 0-12zm-46 10a4 4 0 0 1 0-8zm4 0h-2v-8h2zm27 8h-2a1 1 0 0 1 0-2h2a1 1 0 0 1 0 2zm13-8h-2v-8h2zm2 0v-8a4 4 0 0 1 0 8z"/></g></g></svg>